<svg width="17" height="13" viewBox="0 0 17 13" fill="none" xmlns="http://www.w3.org/2000/svg">
<path d="M13.8867 7.41797L13.8516 7.38281L8.08594 2.60156L2.32031 7.38281V7.41797H2.28516V12.2695C2.28516 12.4453 2.35547 12.5859 2.49609 12.6914C2.60156 12.832 2.77734 12.9023 2.95312 12.9023H6.78516V9.03516H9.38672V12.9023H13.2188C13.3945 12.9023 13.5703 12.832 13.6758 12.6914C13.8164 12.5859 13.8867 12.4453 13.8867 12.2695V7.41797ZM16.1016 6.75C16.1719 6.67969 16.1719 6.60938 16.1719 6.50391C16.1719 6.39844 16.1367 6.32812 16.0664 6.29297L13.8867 4.46484V0.351562C13.8867 0.28125 13.8516 0.175781 13.7812 0.140625C13.7109 0.0703125 13.6406 0.0351562 13.5352 0.0351562H11.6367C11.5312 0.0351562 11.4609 0.0703125 11.3906 0.140625C11.3203 0.175781 11.2852 0.28125 11.2852 0.351562V2.32031L8.85938 0.28125C8.64844 0.105469 8.36719 0 8.08594 0C7.80469 0 7.52344 0.105469 7.3125 0.28125L0.105469 6.29297C0.0351562 6.32812 0 6.39844 0 6.50391C0 6.60938 0 6.67969 0.0703125 6.75L0.667969 7.48828C0.738281 7.55859 0.808594 7.59375 0.878906 7.59375C0.984375 7.59375 1.05469 7.59375 1.125 7.52344L8.08594 1.72266L15.0469 7.52344C15.082 7.55859 15.1523 7.59375 15.2578 7.59375H15.293C15.3633 7.59375 15.4336 7.55859 15.5039 7.48828L16.1016 6.75Z" fill="#76838F"/>
</svg>
