<svg width="18" height="18" viewBox="0 0 18 18" fill="none" xmlns="http://www.w3.org/2000/svg">
<path d="M16.9102 8.05078C17.0859 8.05078 17.2266 8.19141 17.2266 8.36719V17.6836C17.2266 17.8594 17.0859 18 16.9102 18H0.316406C0.140625 18 0 17.8594 0 17.6836V8.36719C0 8.19141 0.140625 8.05078 0.316406 8.05078H1.01953V1.44141C1.01953 1.26562 1.16016 1.08984 1.33594 1.08984H6.96094V0.316406C6.96094 0.140625 7.10156 0 7.27734 0H9.94922C10.125 0 10.2656 0.140625 10.2656 0.316406V1.08984H15.8906C16.0664 1.08984 16.207 1.26562 16.207 1.44141V8.05078H16.9102ZM16.5586 14.8359V8.68359H15.8555V15.0117C16.0664 14.9414 16.3125 14.8711 16.5586 14.8359ZM15.1875 9.94922V9.14062H10.5117V9.94922H15.1875ZM9.84375 9.17578H7.38281V12.1289H9.84375V9.17578ZM4.92188 8.50781H12.3047L12.1992 8.19141C12.0938 8.01562 12.0234 7.80469 11.918 7.73438C11.8125 7.62891 11.6016 7.59375 11.3906 7.55859C11.1797 7.52344 10.9688 7.48828 10.7578 7.38281C10.582 7.3125 10.4062 7.17188 10.2656 7.03125C10.0898 6.89062 9.94922 6.75 9.80859 6.71484C9.66797 6.67969 9.45703 6.71484 9.24609 6.78516C9.07031 6.85547 8.85938 6.92578 8.61328 6.92578C8.36719 6.92578 8.15625 6.85547 7.98047 6.78516C7.76953 6.71484 7.55859 6.67969 7.41797 6.71484C7.27734 6.75 7.13672 6.89062 6.96094 7.03125C6.82031 7.17188 6.64453 7.3125 6.46875 7.38281C6.25781 7.48828 6.04688 7.52344 5.83594 7.55859C5.625 7.59375 5.41406 7.62891 5.30859 7.73438C5.20312 7.80469 5.13281 8.01562 5.02734 8.19141L4.92188 8.50781ZM6.71484 9.14062H2.10938H2.03906V9.94922H6.71484V9.14062ZM2.03906 10.6172V15.3633C2.63672 15.8203 3.09375 16.5586 3.16406 17.3672H14.0625C14.1328 16.5586 14.5898 15.8203 15.1875 15.3633V10.6172H10.5117V12.4805C10.5117 12.6562 10.3359 12.7969 10.1602 12.7969H7.06641C6.89062 12.7969 6.71484 12.6562 6.71484 12.4805V10.6172H2.03906ZM7.59375 0.632812V1.08984H9.63281V0.632812H7.59375ZM1.65234 1.75781V8.05078H1.6875C1.89844 8.05078 2.03906 8.19141 2.03906 8.36719V8.50781H4.11328C4.14844 8.4375 4.18359 8.40234 4.21875 8.36719C4.32422 8.26172 4.35938 8.12109 4.42969 7.94531C4.53516 7.69922 4.64062 7.41797 4.92188 7.20703C5.16797 7.03125 5.44922 6.96094 5.73047 6.92578C5.90625 6.89062 6.04688 6.85547 6.1875 6.82031C6.29297 6.75 6.39844 6.64453 6.53906 6.53906C6.75 6.36328 6.96094 6.15234 7.27734 6.08203C7.59375 6.01172 7.875 6.08203 8.15625 6.15234C8.33203 6.22266 8.47266 6.25781 8.61328 6.25781C8.75391 6.25781 8.89453 6.22266 9.07031 6.15234C9.35156 6.08203 9.63281 6.01172 9.94922 6.08203C10.2656 6.15234 10.4766 6.36328 10.6875 6.53906C10.8281 6.64453 10.9336 6.75 11.0391 6.82031C11.1797 6.85547 11.3203 6.89062 11.4961 6.92578C11.7773 6.96094 12.0586 7.03125 12.3047 7.20703C12.5859 7.41797 12.6914 7.69922 12.7969 7.94531C12.8672 8.12109 12.9023 8.26172 13.0078 8.36719C13.043 8.40234 13.0781 8.4375 13.1133 8.50781H15.1875V8.36719C15.1875 8.19141 15.3633 8.05078 15.5391 8.05078H15.5742V1.75781H1.65234ZM1.37109 8.68359H0.667969V14.8359C0.914062 14.8711 1.16016 14.9414 1.37109 15.0117V8.68359ZM0.667969 17.3672H2.53125C2.35547 16.3828 1.61719 15.6445 0.667969 15.5039V17.3672ZM15.5391 17.3672H16.5586V15.5039C15.6094 15.6445 14.8711 16.3828 14.6953 17.3672H15.5391ZM8.61328 4.21875C8.4375 4.21875 8.29688 4.07812 8.29688 3.90234V3.12891C8.29688 2.95312 8.4375 2.77734 8.61328 2.77734C8.78906 2.77734 8.92969 2.95312 8.92969 3.12891V3.90234C8.92969 4.07812 8.78906 4.21875 8.61328 4.21875ZM6.29297 4.60547L5.83594 3.48047C5.76562 3.33984 5.83594 3.12891 6.01172 3.05859C6.15234 2.98828 6.36328 3.09375 6.43359 3.23438L6.89062 4.35938C6.96094 4.5 6.85547 4.71094 6.71484 4.78125H6.57422C6.46875 4.78125 6.32812 4.71094 6.29297 4.60547ZM4.53516 5.76562L3.97266 5.20312C3.86719 5.0625 3.86719 4.88672 3.97266 4.74609C4.11328 4.60547 4.32422 4.60547 4.42969 4.74609L4.99219 5.30859C5.13281 5.41406 5.13281 5.625 4.99219 5.76562C4.92188 5.83594 4.85156 5.83594 4.78125 5.83594C4.67578 5.83594 4.60547 5.83594 4.53516 5.76562ZM2.49609 7.17188C2.32031 7.10156 2.25 6.92578 2.32031 6.75C2.39062 6.60938 2.56641 6.50391 2.74219 6.57422L3.83203 7.03125C4.00781 7.10156 4.07812 7.3125 4.00781 7.45312C3.9375 7.59375 3.83203 7.66406 3.69141 7.66406C3.65625 7.66406 3.62109 7.66406 3.58594 7.62891L2.49609 7.17188ZM13.2188 7.45312C13.1484 7.3125 13.2188 7.10156 13.3945 7.03125L14.4844 6.57422C14.6602 6.50391 14.8359 6.60938 14.9062 6.75C14.9766 6.92578 14.9062 7.10156 14.7305 7.17188L13.6406 7.62891C13.6055 7.66406 13.5703 7.66406 13.5352 7.66406C13.3945 7.66406 13.2891 7.59375 13.2188 7.45312ZM12.4453 5.83594C12.375 5.83594 12.3047 5.83594 12.2344 5.76562C12.0938 5.625 12.0938 5.41406 12.2344 5.30859L12.7969 4.74609C12.9023 4.60547 13.1133 4.60547 13.2539 4.74609C13.3594 4.88672 13.3594 5.0625 13.2539 5.20312L12.6914 5.76562C12.6211 5.83594 12.5508 5.83594 12.4453 5.83594ZM10.5117 4.78125C10.3711 4.71094 10.2656 4.5 10.3359 4.35938L10.793 3.23438C10.8633 3.09375 11.0742 2.98828 11.2148 3.05859C11.3906 3.12891 11.4609 3.33984 11.3906 3.48047L10.9336 4.60547C10.8984 4.71094 10.7578 4.78125 10.6523 4.78125H10.5117ZM8.61328 11.6367C8.08594 11.6367 7.62891 11.1797 7.62891 10.6523C7.62891 10.125 8.08594 9.66797 8.61328 9.66797C9.14062 9.66797 9.59766 10.125 9.59766 10.6523C9.59766 11.1797 9.14062 11.6367 8.61328 11.6367ZM8.61328 10.3359C8.4375 10.3359 8.29688 10.4766 8.29688 10.6523C8.29688 10.8281 8.4375 10.9688 8.61328 10.9688C8.78906 10.9688 8.92969 10.8281 8.92969 10.6523C8.92969 10.4766 8.78906 10.3359 8.61328 10.3359Z" fill="#76838F"/>
</svg>
