<svg width="18" height="15" viewBox="0 0 18 15" fill="none" xmlns="http://www.w3.org/2000/svg">
<path d="M15.5391 0C16.9102 0 18 1.125 18 2.46094V13.4648C18 13.7812 17.7188 14.0625 17.4023 14.0625H0.597656C0.28125 14.0625 0 13.7812 0 13.4648V2.46094C0 1.125 1.08984 0 2.46094 0H15.5391ZM1.19531 6.15234V12.8672H2.46094V6.15234H1.19531ZM3.65625 6.15234V12.8672H14.3438V6.15234H11.5664V8.50781C11.5664 8.85938 11.3203 9.10547 10.9688 9.10547H7.03125C6.67969 9.10547 6.43359 8.85938 6.43359 8.50781V6.15234H3.65625ZM10.9688 2.98828C11.3203 2.98828 11.5664 3.23438 11.5664 3.58594V4.95703H14.3438V1.19531H3.65625V4.95703H6.43359V3.58594C6.43359 3.23438 6.67969 2.98828 7.03125 2.98828H10.9688ZM7.62891 4.18359V7.91016H10.3711V4.18359H7.62891ZM15.5391 6.15234V12.8672H16.8047V6.15234H15.5391ZM16.8047 2.46094C16.8047 1.75781 16.2422 1.19531 15.5391 1.19531V4.95703H16.8047V2.46094ZM2.46094 1.19531C1.75781 1.19531 1.19531 1.75781 1.19531 2.46094V4.95703H2.46094V1.19531ZM9 4.95703C9.31641 4.95703 9.59766 5.20312 9.59766 5.55469V6.53906C9.59766 6.85547 9.31641 7.13672 9 7.13672C8.68359 7.13672 8.40234 6.85547 8.40234 6.53906V5.55469C8.40234 5.20312 8.68359 4.95703 9 4.95703Z" fill="#76838F"/>
</svg>
