<svg width="14" height="14" viewBox="0 0 14 14" fill="none" xmlns="http://www.w3.org/2000/svg">
<path d="M5.51953 13.3242C5.55469 13.3242 5.55469 13.2891 5.58984 13.2891L12.2695 9.42188C12.4453 9.31641 12.5859 9.21094 12.7266 9.07031C13.6758 8.12109 13.6758 6.57422 12.7266 5.625C12.5859 5.44922 12.4102 5.34375 12.2344 5.23828L3.79688 0.351562H3.76172C3.375 0.140625 2.95312 0 2.46094 0C1.08984 0 0 1.125 0 2.49609V11.0039C0 11.707 0.527344 12.2344 1.19531 12.2344C1.89844 12.2344 2.42578 11.707 2.42578 11.0039V3.41016C2.46094 3.09375 2.70703 2.84766 3.05859 2.84766C3.12891 2.84766 3.23438 2.88281 3.30469 2.91797L10.6172 6.82031C10.793 6.92578 10.9336 7.13672 10.9336 7.34766C10.9336 7.59375 10.793 7.80469 10.582 7.91016L4.35938 11.2148C3.97266 11.4258 3.69141 11.8477 3.69141 12.3047C3.69141 12.9727 4.21875 13.5 4.88672 13.5C5.13281 13.5 5.34375 13.4297 5.51953 13.3242Z" fill="#22A7F0"/>
</svg>
