<svg width="15" height="14" viewBox="0 0 15 14" fill="none" xmlns="http://www.w3.org/2000/svg">
<path d="M14.1412 2.58398C14.4928 2.79491 14.6686 3.49804 14.6334 3.8496C14.5631 4.48241 14.3873 5.11523 13.7545 5.74804C13.7194 5.7832 13.6842 5.81835 13.6491 5.81835C12.735 6.69726 11.5045 6.87304 10.3444 6.52148C10.3092 6.48632 10.2389 6.48632 10.2037 6.45116C10.028 6.41601 9.85219 6.48632 9.74672 6.59179L8.48109 7.96288C10.3092 9.7207 12.2428 11.3379 12.2428 11.3379C12.3131 11.4082 12.3131 11.5137 12.2428 11.584L10.485 13.3769C10.4147 13.4473 10.3092 13.4473 10.2389 13.3769C10.2389 13.3769 8.69203 11.4434 6.96937 9.61523L3.735 13.0605C3.24281 13.6582 2.32875 13.623 1.8014 13.0605C1.27406 12.5332 1.2389 11.6191 1.83656 11.0918L5.24672 7.82226L4.82484 7.40038C4.75453 7.33007 4.71937 7.15429 4.75453 7.04882L4.86 6.87304C3.98109 5.95898 3.59437 5.71288 2.89125 5.74804C2.18812 5.7832 1.62562 6.24023 1.20375 6.73241C0.781873 7.25976 0.887342 8.56054 0.922498 8.9121C0.992811 9.29882 0.676404 9.08788 0.500623 8.9121C0.149061 8.52538 -0.307971 7.11913 0.289686 5.64257C0.922498 4.13085 1.76625 3.21679 1.97719 3.00585C2.22328 2.79491 2.57484 2.47851 2.82094 2.26757C3.10219 2.05663 3.55922 2.33788 3.77015 2.09179C3.91078 1.95116 3.94594 1.70507 3.94594 1.52929L3.80531 1.38866C3.735 1.31835 3.735 1.21288 3.80531 1.14257L4.89515 0.0527258C4.96547 -0.0175867 5.07094 -0.0175867 5.14125 0.0527258L6.89906 1.81054C6.96937 1.88085 6.96937 2.02148 6.89906 2.09179L5.80922 3.18163C5.7389 3.25194 5.63344 3.25194 5.56312 3.18163L5.28187 2.86523C5.03578 2.90038 4.75453 3.04101 4.68422 3.21679C4.57875 3.39257 4.47328 3.95507 4.57875 4.37694C4.68422 4.76366 5.03578 5.08007 5.80922 5.88866L6.02015 5.7832C6.16078 5.71288 6.3014 5.74804 6.37172 5.81835C6.37172 5.81835 6.44203 5.88866 6.82875 6.31054L8.16469 5.00976C8.30531 4.90429 8.34047 4.72851 8.30531 4.55273C8.30531 4.48241 8.27015 4.4121 8.27015 4.37694C7.91859 3.21679 8.09437 1.95116 8.93812 1.00194C8.97328 1.00194 9.00844 0.966788 9.00844 0.931632C9.64125 0.263663 10.2741 0.087882 10.8717 0.0175695C11.2584 0.0175695 11.9264 0.158195 12.1022 0.544913L10.4147 2.23241L10.3444 2.33788L10.3092 2.37304C10.2741 2.40819 10.2389 2.44335 10.2389 2.51366C10.2389 2.58398 10.2741 2.65429 10.3092 2.68944L10.4498 2.83007L11.8912 4.30663L11.9967 4.4121L12.0319 4.44726C12.067 4.48241 12.1373 4.51757 12.1725 4.51757C12.2428 4.51757 12.278 4.48241 12.3131 4.44726L12.3834 4.4121L12.4537 4.30663L14.1412 2.58398Z" fill="#76838F"/>
</svg>
