<svg width="18" height="18" viewBox="0 0 18 18" fill="none" xmlns="http://www.w3.org/2000/svg">
<path d="M11.25 10.6875C11.25 10.0547 10.7578 9.5625 10.125 9.5625C9.49219 9.5625 9 10.0547 9 10.6875C9 11.3203 9.49219 11.8125 10.125 11.8125C10.7578 11.8125 11.25 11.3203 11.25 10.6875ZM16.3125 6.75C18.5625 8.4375 18.5625 11.8125 16.3125 13.5V14.3438C16.3125 16.0664 14.9414 17.4375 13.2188 17.4375H3.09375C1.37109 17.4375 0 16.0664 0 14.3438V3.09375C0 1.37109 1.37109 0 3.09375 0H14.625C15.5391 0 16.3125 0.738281 16.3125 1.6875V3.375V6.75ZM3.09375 1.125C2.00391 1.125 1.125 2.00391 1.125 3.09375C1.125 3.62109 1.33594 4.11328 1.6875 4.46484V2.25C1.6875 1.93359 1.93359 1.6875 2.25 1.6875H14.0625C14.3789 1.6875 14.625 1.93359 14.625 2.25V5.0625C14.8359 5.0625 15.0117 5.09766 15.1875 5.16797V1.6875C15.1875 1.37109 14.9414 1.125 14.625 1.125H3.09375ZM14.0625 2.8125V2.25H2.25V2.8125H14.0625ZM14.0625 3.375H2.25V3.9375H14.0625V3.375ZM14.0625 4.5H2.25V4.85156C2.49609 4.99219 2.77734 5.0625 3.09375 5.0625H14.0625V4.5ZM15.1875 14.3438V13.5H10.125C8.57812 13.5 7.3125 12.2344 7.3125 10.6875C7.3125 9.14062 8.57812 7.875 10.125 7.875H15.1875V6.75C15.1875 6.43359 14.9414 6.1875 14.625 6.1875H3.09375C2.35547 6.1875 1.65234 5.90625 1.125 5.48438V14.3438C1.125 15.4336 2.00391 16.3125 3.09375 16.3125H13.2188C14.3086 16.3125 15.1875 15.4336 15.1875 14.3438ZM15.8906 12.375C16.5234 11.7773 16.875 11.0039 16.875 10.125C16.875 9.42188 16.6641 8.78906 16.2422 8.26172V8.29688C16.207 8.36719 16.1367 8.47266 16.1016 8.54297C15.8906 8.82422 15.5391 9 15.1875 9H10.125C9.21094 9 8.4375 9.77344 8.4375 10.6875C8.4375 11.6016 9.21094 12.375 10.125 12.375H15.8906Z" fill="#76838F"/>
</svg>
